PathFileType	4	(X/Y/Z)	C:/Users/beibeiliu/ov580/test_trc/User1\sequence.17_training_dense_left.trc
DataRate	CameraRate	NumFrames	NumMarkers	Units	OrigDataRate	OrigDataStartFrame	OrigNumFrames
120	120	20	19	mm	120	220	292
Frame#	Time	ThumbCMC			ThumbMCP			ThumbIP			ThumbTip			IndexMCP			IndexPIP			IndexTip			MiddleMCP			MiddlePIP			MiddleTip			RingMCP			RingPIP			RingTip			PinkyMCP			PinkyPIP			PinkyTip			BackHand1			BackHand2			BackHand3	
		X0	Y0	Z0	X1	Y1	Z1	X2	Y2	Z2	X3	Y3	Z3	X4	Y4	Z4	X5	Y5	Z5	X6	Y6	Z6	X7	Y7	Z7	X8	Y8	Z8	X9	Y9	Z9	X10	Y10	Z10	X11	Y11	Z11	X12	Y12	Z12	X13	Y13	Z13	X14	Y14	Z14	X15	Y15	Z15	X16	Y16	Z16	X17	Y17	Z17	X18	Y18	Z18	
219	1.825	-182.267	50.5849	37.6045	-158.138	37.1265	26.8697	-135.677	35.7655	8.78143	-119.186	30.854	6.50952	-191.673	55.1564	-46.2203	-194.066	51.1803	-70.2531	-194.958	50.308	-99.3813	-207.026	22.0401	-50.161	-196.193	-10.1627	-42.3867	-193.59	-5.10343	-2.35182	-222.697	3.36349	-37.9742	-207.847	-16.338	-20.2716	-207.396	-4.39496	13.6654	-241.377	3.3464	-26.1003	-225.993	-15.8208	-9.82719	-217.029	5.37424	13.3337	-243.987	51.9685	-0.509224	-250.291	60.977	33.9716	-216.683	67.266	18.6155	
220	1.83333	-180.92	58.2731	37.9604	-156.769	47.2674	26.3494	-133.938	48.4321	14.0654	-115.957	47.9641	6.12433	-192.347	54.2386	-47.8874	-190.934	49.9657	-74.1637	-192.303	47.77	-96.4499	-200.132	22.317	-48.8413	-182.157	-8.33231	-39.3544	-181.444	-0.0117846	1.53199	-215.329	0.0609971	-36.6913	-200.508	-17.9494	-15.4027	-198.996	-3.24256	14.0056	-234.083	-7.38222	-24.4892	-214.471	-16.937	-7.34563	-210.301	9.12324	15.4302	-245.452	45.8156	-2.93005	-248.242	55.4365	31.178	-216.046	68.6195	16.4315	
221	1.84167	-181.534	65.8495	36.4385	-155.048	58.2009	23.8191	-133.14	61.9346	9.35965	-115.047	65.9592	6.58747	-194.164	53.4791	-48.777	-192.075	48.4294	-72.6982	-192.893	43.8016	-98.9699	-195.459	20.1792	-50.1714	-176.421	-8.24074	-36.0134	-176.159	2.5081	3.86323	-207.454	0.921918	-35.0039	-189.525	-15.8155	-11.8024	-193.487	0.816747	18.6386	-223.777	-8.45997	-23.0252	-205.015	-17.133	-3.62507	-205.887	7.45254	20.064	-241.9	41.945	-3.72897	-253.914	51.5251	34.6527	-217.558	69.3434	13.7348	
222	1.85	-185.405	69.6878	32.9767	-157.252	67.5266	20.475	-136.803	75.8269	6.11546	-117.777	83.2023	1.32752	-194.934	54.1883	-49.4574	-192.254	47.495	-73.3078	-193.515	40.8654	-98.0033	-194.497	19.4307	-48.6868	-167.949	-5.0748	-34.5663	-170.813	5.23031	4.44605	-200.448	-1.90634	-33.5714	-181.379	-14.9524	-10.182	-187.346	0.840192	19.3969	-221.407	-10.3366	-19.6031	-196.683	-16.8683	1.51151	-201.309	8.7131	22.4655	-243.184	35.3395	-3.64114	-250.169	46.4867	32.4242	-223.44	64.6526	15.4367	
223	1.85833	-187.794	75.0575	30.8539	-162.654	74.0276	22.9554	-144.806	82.0279	5.12075	-126.062	96.1167	1.50909	-196.992	50.341	-51.8467	-197.044	40.7229	-74.2737	-198.916	31.8918	-99.5997	-192.178	12.761	-47.6554	-163.125	-3.40706	-35.9598	-163.073	9.69323	4.5021	-196.663	-2.61438	-32.0289	-173.774	-11.8167	-6.39175	-179.364	4.45716	18.5293	-209.725	-15.2111	-18.1694	-188.869	-13.7573	0.976938	-195.724	10.0621	22.7137	-240.477	33.9225	-3.52626	-253.294	40.2271	29.4976	-224.214	61.2455	12.9946	
224	1.86667	-191.574	76.0904	28.7858	-166.78	79.8592	15.4866	-148.238	95.2246	5.46007	-133.805	107.11	-0.736306	-198.399	47.8445	-53.355	-198.505	36.8584	-76.6613	-199.035	27.9017	-100.391	-188.129	10.8561	-47.5455	-159.511	-3.87711	-31.2216	-158.852	13.9581	4.18124	-196.346	-3.93446	-29.1806	-169.065	-11.9594	-4.68005	-174.891	7.80093	19.6466	-206.569	-19.4034	-15.1125	-183.587	-16.3789	4.31675	-191.344	12.808	23.4398	-241.341	27.394	-0.534563	-252.113	39.2252	32.4615	-224.281	62.9244	10.1594	
225	1.875	-193.357	80.4556	28.9665	-170.491	88.6527	18.6918	-156.264	96.1903	4.07411	-141.255	115.75	-4.99224	-199.976	45.2249	-55.0654	-197.332	37.7362	-77.7409	-202.117	23.4974	-95.4269	-188.38	16.1636	-46.5847	-158.518	-1.54907	-32.2568	-156.968	14.9159	2.81428	-189.464	-6.72095	-28.2407	-163.606	-5.48504	-6.65655	-172.492	9.41189	20.2899	-201.076	-15.5452	-14.2962	-180.346	-12.4149	4.54844	-188.449	13.8646	25.2443	-240.266	27.119	-0.15283	-248.797	37.0518	35.4023	-224.876	61.6476	11.5799	
226	1.88333	-194.573	81.4014	28.1982	-172.887	86.1178	15.476	-158.595	105.377	0.0569102	-148.219	120.147	-7.16106	-198.908	46.8379	-52.0721	-198.437	36.4776	-76.048	-200.866	24.887	-95.9163	-184.965	15.8704	-46.6243	-153.584	3.31275	-30.754	-155.312	19.8607	3.92522	-185.552	-1.59014	-28.1632	-163.108	-5.09088	-4.27187	-171.901	15.9399	22.0803	-198.108	-18.0033	-12.9991	-177.147	-12.1117	6.88012	-184.363	14.6928	21.7417	-238.649	22.6064	-1.91237	-247.423	37.2922	32.2147	-227.304	60.0542	13.4373	
227	1.89167	-197.729	78.9759	29.7529	-176.785	87.1804	14.6212	-163.726	102.615	-1.78935	-154.213	120.581	-9.00003	-199.277	47.5138	-51.2665	-197.438	38.7529	-74.0994	-198.068	23.4684	-98.7758	-182.819	18.2575	-47.1396	-150.109	7.81277	-32.2088	-152.402	22.6609	4.07996	-183.217	-4.28301	-27.0236	-158.531	-0.389524	-3.72244	-171.14	17.7313	23.5291	-198.462	-13.9514	-13.4046	-174.522	-11.8192	3.65127	-180.539	13.8271	25.8778	-236.882	26.4423	-3.92494	-247.232	33.6372	32.5569	-227.24	63.3372	9.20008	
228	1.9	-200.251	80.6756	28.6183	-179.263	87.4691	15.6475	-166.999	102.848	-2.29037	-159.532	124.161	-6.92587	-199.099	44.1751	-54.4366	-196.08	35.8966	-75.0157	-193.929	23.2687	-100.951	-181.058	16.9933	-47.1038	-150.053	8.57872	-31.8032	-152.332	21.8347	2.78947	-186.022	-3.60815	-26.3154	-156.379	1.60743	-5.53849	-164.669	17.06	19.7529	-195.794	-16.5556	-11.7507	-169.971	-7.4533	7.24329	-182.274	18.5141	21.1855	-236.667	21.4478	-1.75757	-247.854	33.4322	31.371	-228.522	61.3377	11.1968	
229	1.90833	-202.513	78.8576	27.1787	-181.597	89.129	14.671	-170.865	103.648	-4.63169	-164.977	125.316	-12.4409	-196.579	49.2849	-54.3922	-191.163	37.9372	-76.43	-186.458	23.8006	-97.5389	-181.247	20.308	-46.0925	-145.486	13.1155	-30.8996	-151.013	23.2567	3.86586	-179.714	-2.80396	-27.5775	-154.862	0.502295	-4.01938	-167.056	18.906	23.2241	-187.701	-16.155	-11.7239	-167.626	-8.30665	3.31482	-178.483	18.7492	24.8392	-233.326	21.0229	-0.988221	-248.282	28.1742	31.963	-229.976	55.1739	7.30335	
230	1.91667	-204.941	80.0481	27.3562	-185.452	89.2092	8.11799	-176.434	104.76	-8.84825	-172.378	124.095	-15.7386	-195.163	48.1679	-53.1498	-186.373	36.4805	-77.3726	-179.753	22.4378	-99.1389	-179.383	15.3989	-44.4763	-144.266	14.5572	-30.2307	-151.001	30.4128	7.62761	-176.588	1.9164	-27.2749	-152.481	0.470685	-4.66943	-161.342	21.8514	20.6336	-187.466	-16.9363	-10.5495	-164.428	-3.09638	6.83253	-179.043	20.3093	24.5795	-233.081	18.0805	-4.09371	-244.811	29.9251	27.9765	-231.577	54.8534	7.67956	
231	1.925	-207.416	77.8103	24.6977	-190.587	93.6788	7.69942	-183.233	105.593	-11.9008	-180.242	124.099	-14.4796	-191.761	47.9027	-55.6051	-182.82	38.1436	-75.4319	-174.953	19.7113	-99.8779	-173.292	20.1304	-44.5492	-142.339	18.0939	-25.737	-150.687	32.1677	10.0569	-173.476	0.439999	-25.5639	-151.072	2.71377	-1.83976	-162.847	22.8294	22.5456	-186.529	-13.5879	-10.7154	-163.133	-3.45705	5.52794	-173.044	19.5102	23.8251	-232.229	17.5489	-3.20353	-246.672	26.3662	28.5279	-231.62	53.596	7.41462	
232	1.93333	-210.702	77.8581	24.9949	-194.9	88.2249	6.26778	-190.698	105.667	-12.0916	-188.463	121.527	-15.7294	-192.602	44.6071	-55.9292	-182.493	37.9075	-75.4528	-173.776	24.0697	-95.8984	-172.937	15.9638	-43.4297	-141.532	19.001	-26.5516	-148	30.5312	7.67129	-171.038	-2.83038	-23.0628	-149.11	7.96508	-2.77343	-163.46	24.9351	23.9503	-180.222	-14.0409	-10.2947	-160.776	-3.11528	8.81637	-176.78	22.3617	24.9737	-231.393	16.1165	0.662095	-246.025	22.555	30.4993	-234.069	52.3771	10.5077	
233	1.94167	-214.733	76.1311	28.3866	-201.073	88.1346	7.50824	-198.354	105.685	-12.1587	-201.5	123.534	-22.1893	-195.39	43.5553	-53.7815	-186.307	33.6636	-76.7625	-177.515	18.3956	-97.1268	-176.339	17.4735	-42.4382	-144.071	16.8755	-29.4451	-151.763	32.3593	9.69526	-175.486	0.666621	-24.7598	-149.138	5.62556	-1.36394	-164.835	28.0288	24.2692	-181.033	-15.3431	-9.15868	-160.487	0.176397	8.20757	-174.923	19.2574	24.9118	-232.151	8.12887	0.153385	-246.958	19.0547	31.1584	-234.35	47.3572	5.62964	
234	1.95	-218.09	75.8746	23.4575	-205.938	89.1792	6.81227	-206.407	103.902	-17.3059	-206.553	117.542	-24.9587	-198.716	40.4592	-56.8817	-189.481	29.9131	-78.4609	-181.395	18.1187	-98.8721	-174.39	16.1332	-44.4665	-143.548	20.2289	-26.9496	-151.586	33.7196	6.5712	-169.977	-0.915543	-23.7031	-149.787	9.51622	-3.08823	-166.269	26.2147	23.9548	-181.214	-14.2375	-9.1106	-159.239	-1.77843	7.60196	-175.495	22.5786	24.661	-231.623	9.26477	-1.17405	-247.45	20.03	29.8143	-237.265	46.674	7.01509	
235	1.95833	-220.718	75.7502	27.7997	-211.72	89.8004	4.49913	-211.591	104.284	-16.6412	-214.746	116.8	-27.9389	-202.734	36.2644	-55.2808	-194.656	29.4049	-74.5539	-185.678	14.9997	-100.624	-175.676	12.8964	-43.6655	-145.204	22.1485	-28.3337	-153.52	34.0255	6.11692	-172.334	-2.35729	-22.8632	-150.658	11.3109	-2.03879	-164.908	25.5989	22.7844	-180.193	-18.0979	-7.55396	-160.651	-0.172805	7.62156	-174.701	21.0129	22.7655	-231.912	6.87851	2.03541	-247.801	15.0205	34.4242	-238.667	48.2615	4.82685	
236	1.96667	-222.322	77.8322	26.1776	-214.571	91.3735	4.84164	-216.387	103.785	-19.1215	-219.995	117.395	-26.3857	-203.878	37.9062	-58.5068	-197.142	26.3128	-75.6856	-190.728	9.87064	-100.186	-182.399	15.5369	-43.5652	-147.325	19.2497	-27.6776	-154.12	34.0369	4.12241	-177.489	-1.078	-24.7954	-151.497	10.0637	-0.0422026	-167.858	25.8264	23.1838	-182.78	-19.5842	-7.61681	-160.935	0.733369	6.58107	-178.537	22.8066	21.3774	-234.27	9.66121	2.04237	-249.582	14.2795	32.1528	-239.474	45.0584	7.22282	
237	1.975	-222.654	70.941	23.4199	-216.928	88.6268	1.02434	-216.347	98.4678	-19.4842	-221.843	117.065	-26.1795	-205.795	36.5638	-58.6175	-199.056	29.0778	-75.4691	-193.381	10.8952	-96.3037	-180.842	16.3874	-46.0968	-148.761	21.13	-31.935	-156.484	33.3349	5.38934	-177.901	-2.56791	-25.091	-152.353	9.1376	-5.71221	-165.837	27.5753	19.5904	-182.342	-14.6766	-10.8227	-161.708	-3.93515	3.07335	-179.456	20.3014	23.4083	-233.95	5.53085	2.13094	-249.849	15.6572	29.9769	-241.934	42.6719	8.44625	
238	1.98333	-224.445	75.4171	24.5748	-216.159	88.97	5.31869	-218.38	103.191	-19.6023	-221.572	115.659	-26.6275	-207.722	39.4898	-56.935	-200.14	27.1735	-80.1613	-194.804	14.4059	-100.535	-181.877	15.129	-46.4926	-150.031	16.7628	-30.2068	-156.846	35.1207	4.01815	-176.84	-0.476801	-26.742	-153.674	9.02188	-7.91113	-166.894	25.7986	19.3765	-182.817	-18.2547	-10.8604	-163.48	-1.58986	3.17999	-177.505	18.1966	22.7344	-235.576	9.35155	1.77838	-251.202	13.1439	29.2196	-241.055	46.3998	10.8793	
